<svg version="1.0" xmlns="http://www.w3.org/2000/svg"
 width="128.000000pt" height="128.000000pt" viewBox="0 0 128.000000 128.000000"
 preserveAspectRatio="xMidYMid meet">

<g transform="translate(0.000000,128.000000) scale(0.100000,-0.100000)"
fill="#000000" stroke="none">
<path d="M30 855 l0 -405 128 2 127 2 -120 6 -120 5 0 315 0 315 558 3 557 2
0 -320 0 -319 -82 -4 -83 -3 93 -2 92 -2 0 405 0 405 -575 0 -575 0 0 -405z
m1130 325 l0 -70 -558 2 -557 3 -3 54 c-2 29 -1 60 2 67 4 12 100 14 561 14
l555 0 0 -70z"/>
<path d="M110 1210 c-11 -11 -20 -24 -20 -30 0 -15 38 -50 53 -50 16 0 47 32
47 48 0 15 -36 52 -50 52 -5 0 -19 -9 -30 -20z m48 -28 c3 -16 -2 -22 -17 -22
-26 0 -36 17 -20 36 16 19 33 13 37 -14z"/>
<path d="M241 1213 c-12 -8 -21 -23 -21 -33 0 -40 73 -60 87 -24 9 24 -6 61
-26 67 -11 2 -29 -2 -40 -10z m47 -27 c5 -24 -10 -38 -31 -30 -20 7 -23 40 -4
47 19 8 32 2 35 -17z"/>
<path d="M372 1214 c-12 -8 -22 -24 -22 -34 0 -10 10 -26 22 -34 19 -13 25
-14 43 -2 11 7 20 24 20 36 0 12 -9 29 -20 36 -18 12 -24 11 -43 -2z m46 -28
c4 -21 -14 -37 -35 -29 -14 5 -18 35 -6 47 12 12 38 1 41 -18z"/>
<path d="M570 1206 c-6 -8 -10 -25 -8 -38 l3 -23 270 -3 c245 -2 271 -1 283
15 16 22 15 28 -4 47 -22 23 -525 24 -544 2z m535 -26 c0 -13 -37 -15 -262
-18 -259 -2 -263 -2 -263 18 0 20 4 20 263 18 225 -3 262 -5 262 -18z"/>
<path d="M170 790 c0 -5 22 -10 50 -10 43 0 50 -3 55 -22 14 -60 85 -442 85
-459 0 -10 -6 -19 -13 -19 -22 0 -47 -34 -47 -63 0 -38 33 -67 75 -67 33 0 35
-2 25 -21 -27 -50 35 -114 87 -90 30 14 47 55 33 81 -5 10 -10 21 -10 24 0 3
43 6 95 6 94 0 94 0 86 -22 -11 -30 2 -63 33 -83 49 -33 108 17 88 75 -10 28
-9 30 14 30 13 0 24 5 24 10 0 6 -91 10 -253 10 -267 0 -277 2 -277 46 0 52
10 54 295 54 l264 0 6 38 c4 20 22 115 41 210 19 95 34 179 34 187 0 13 -48
15 -329 15 l-329 0 -7 27 c-4 16 -11 34 -17 40 -12 15 -108 18 -108 3z m284
-127 c3 -21 6 -53 6 -70 l0 -33 -64 0 -63 0 -12 57 c-17 87 -19 83 58 83 l68
0 7 -37z m156 -3 c0 -35 -4 -41 -35 -55 -19 -9 -39 -23 -46 -31 -6 -8 -20 -14
-30 -14 -15 0 -19 7 -19 33 0 17 -3 49 -6 70 l-7 37 72 0 71 0 0 -40z m163
-17 c-2 -32 -6 -64 -9 -70 -6 -20 -31 -15 -59 11 -15 14 -36 26 -48 28 -18 2
-23 11 -25 46 l-3 42 75 0 75 0 -6 -57z m167 50 c-1 -5 -6 -35 -13 -68 l-13
-60 -66 -3 -66 -3 5 48 c9 97 5 93 83 93 39 0 70 -3 70 -7z m-249 -132 c21
-22 29 -39 29 -66 0 -83 -105 -127 -164 -69 -58 59 -14 164 69 164 27 0 44 -8
66 -29z m-221 -60 c0 -22 3 -46 6 -55 5 -14 -3 -16 -54 -16 l-60 0 -11 44
c-17 67 -17 66 54 66 l65 0 0 -39z m34 14 c-3 -13 -1 -38 4 -55 11 -30 -1 -44
-12 -14 -10 26 -7 94 4 94 6 0 8 -11 4 -25z m256 8 c0 -39 -13 -93 -22 -93 -5
0 -6 5 -3 10 4 6 7 31 7 55 0 25 4 45 9 45 5 0 9 -8 9 -17z m146 0 c-3 -10 -8
-35 -12 -55 l-6 -38 -60 0 -61 0 7 38 c3 20 6 45 6 55 0 14 10 17 66 17 58 0
65 -2 60 -17z m-426 -135 c0 -13 3 -40 6 -60 l7 -38 -55 0 -55 0 -10 60 -10
60 59 0 c53 0 58 -2 58 -22z m87 1 c40 -19 43 -24 43 -60 l0 -39 -49 0 c-48 0
-48 0 -55 38 -14 89 -9 95 61 61z m179 -10 c-3 -17 -6 -44 -6 -60 0 -28 -1
-29 -55 -29 l-55 0 0 38 c0 34 4 39 43 59 23 11 50 22 61 22 16 1 18 -4 12
-30z m129 -21 c-4 -29 -9 -56 -12 -60 -2 -5 -26 -8 -54 -8 -47 0 -49 1 -49 29
0 16 3 43 6 60 6 30 8 31 61 31 l55 0 -7 -52z m-387 -220 c7 -7 12 -21 12 -33
0 -12 -5 -26 -12 -33 -27 -27 -78 -7 -78 29 0 39 52 63 78 37z m290 0 c15 -15
15 -51 0 -66 -39 -39 -100 17 -63 58 20 23 45 26 63 8z"/>
<path d="M1000 343 c0 -5 9 -19 20 -33 21 -26 27 -12 10 21 -10 19 -30 26 -30
12z"/>
<path d="M1112 325 c-7 -14 -12 -29 -12 -33 1 -10 40 38 40 49 0 18 -17 8 -28
-16z"/>
<path d="M945 240 c-4 -6 8 -10 30 -10 22 0 34 4 30 10 -3 6 -17 10 -30 10
-13 0 -27 -4 -30 -10z"/>
<path d="M1060 243 c0 -10 59 -166 66 -172 2 -3 11 4 18 15 14 18 15 18 35 -1
21 -19 22 -18 43 3 21 21 21 22 3 42 -18 20 -19 22 -2 31 34 20 30 22 -150 87
-7 2 -13 0 -13 -5z m109 -49 c28 -12 32 -16 21 -29 -10 -13 -9 -19 5 -35 24
-26 11 -39 -15 -15 -16 15 -22 16 -35 5 -9 -7 -17 -11 -18 -9 -6 7 -37 94 -37
103 0 8 25 2 79 -20z"/>
<path d="M1012 155 c-14 -29 2 -34 18 -6 12 24 13 31 2 31 -5 0 -14 -11 -20
-25z"/>
</g>
</svg>
